<svg height="512" viewBox="0 0 52 58" width="512" xmlns="http://www.w3.org/2000/svg"><g id="Page-1" fill="none" fill-rule="evenodd"><g id="029---Beers"><path id="Path" d="m3 48h-.05c-.12464523-6.3556098-.60875204-12.6990783-1.45-19-.75-6.03-1.12-11.26-1.31-15-.19-3.76-.19-6-.19-6l5-2h4l12.99 2s0 2.24-.19 6c-.18 3.74-.56 8.97-1.31 15-.18 1.48-.36 2.95-.52 4.47v.01l-6.8 13.59z" fill="#f0c419"/><path id="Path" d="m22 6-.01 2h-12.99v8c0 1.1045695-.8954305 2-2 2s-2-.8954305-2-2v-8h-5v-2c-.00631716-.99097554.48024193-1.92030354 1.29826537-2.47968721.81802343-.55938367 1.86055164-.67568155 2.78173463-.31031279.31731834-1.58391207 1.55749715-2.82072585 3.14226554-3.1337395 1.58476839-.31301364 3.20204846.35941254 4.09773446 1.7037395.9500035-.77337471 2.2369519-.98960129 3.3875349-.56915652 1.150583.42044476 1.9949132 1.41548083 2.2224651 2.61915652.8686324-.82805852 2.1471682-1.05878091 3.250445-.58656974s1.8189838 1.55648526 1.819555 2.75656974z" fill="#f5efca"/><path id="Path" d="m15.75 52.99h-10.76c-1.10067601.0000138-1.99449662-.8893377-2-1.99-.01-1.04-.02-2.04-.04-3h.05c2.61417554-.6675201 5.30194799-1.0034916 8-1 0 0 .9 0 2.17.07.02.12.04.23.06.35.3826803 2.031412 1.2468336 3.941465 2.52 5.57z" fill="#b19046"/><path id="Path" d="m38.83 47.07-6.8-13.59c-.17-1.52-.35-3-.53-4.48-.75-6.03-1.12-11.26-1.31-15-.19-3.76-.19-6-.19-6l5-2h4l12.99 2s0 2.24-.19 6c-.18 3.74-.56 8.97-1.31 15-.8322716 6.3016978-1.3130157 12.6448488-1.44 19h-.05z" fill="#f0c419"/><path id="Path" d="m49.05 48c-.03.96-.04 1.96-.05 3-.0055034 1.1006623-.899324 1.9900138-2 1.99h-10.75c1.2731664-1.628535 2.1373197-3.538588 2.52-5.57.02-.12.04-.23.06-.35 1.27-.07 2.17-.07 2.17-.07 2.698052-.0034916 5.3858245.3324799 8 1z" fill="#b19046"/><path id="Path" d="m52 6-.01 2h-12.99v8c0 1.1045695-.8954305 2-2 2s-2-.8954305-2-2v-8h-5v-2c-.0063172-.99097554.4802419-1.92030354 1.2982654-2.47968721.8180234-.55938367 1.8605516-.67568155 2.7817346-.31031279.3173183-1.58391207 1.5574972-2.82072585 3.1422655-3.1337395 1.5847684-.31301364 3.2020485.35941254 4.0977345 1.7037395.9500035-.77337471 2.2369519-.98960129 3.3875349-.56915652 1.150583.42044476 1.9949132 1.41548083 2.2224651 2.61915652.8686324-.82805852 2.1471682-1.05878091 3.250445-.58656974s1.8189838 1.55648526 1.819555 2.75656974z" fill="#f5efca"/><g fill="#b19046"><circle id="Oval" cx="10" cy="39" r="1"/><circle id="Oval" cx="12" cy="35" r="1"/><circle id="Oval" cx="10" cy="31" r="1"/><circle id="Oval" cx="12" cy="27" r="1"/><circle id="Oval" cx="10" cy="23" r="1"/><circle id="Oval" cx="40" cy="39" r="1"/><circle id="Oval" cx="42" cy="35" r="1"/><circle id="Oval" cx="40" cy="31" r="1"/><circle id="Oval" cx="42" cy="27" r="1"/><circle id="Oval" cx="40" cy="23" r="1"/></g><path id="Path" d="m39 45c-.0003007.6934741-.0571558 1.3857686-.17 2.07-.02.12-.04.23-.06.35-1.1687625 6.1305019-6.5290819 10.5654364-12.77 10.5654364s-11.6012375-4.4349345-12.77-10.5654364c-.02-.12-.04-.23-.06-.35-.3294498-2.0099949-.1786766-4.0694187.44-6.01 1.0379622-3.2662323 3.3237217-5.9904551 6.36-7.58v-.01c1.8624495-.968027 3.9310028-1.4723012 6.03-1.47 2.1006678-.0062158 4.1709207.501906 6.03 1.48 3.0304756 1.5892521 5.312132 4.3092739 6.35 7.57.4154067 1.2753182.6247033 2.6087405.62 3.95z" fill="#ecf0f1"/><path id="Path" d="m39 45c0 .075 0 .15-.005.22-.1952161 7.0365853-5.9557073 12.6394795-12.995 12.6394795s-12.7997839-5.6028942-12.995-12.6394795c0 .075.005.15.01.22l.275-.21c1.3459591 6.2673177 7.0594786 10.6180457 13.4590511 10.2487916 6.3995726-.3692541 11.5747683-5.3482588 12.1909489-11.7287916.02.2.035.41.045.62s.015.42.015.63z" fill="#bdc3c7"/><path id="Rectangle" d="m17.391 49.499h8.811v2h-8.811z" fill="#bdc3c7" transform="matrix(.607 -.794 .794 .607 -31.559 37.142)"/><path id="Rectangle" d="m18.201 38.772h2v7.919h-2z" fill="#bdc3c7" transform="matrix(.282 -.959 .959 .282 -27.212 49.093)"/><path id="Rectangle" d="m29.203 46.095h2v8.811h-2z" fill="#bdc3c7" transform="matrix(.794 -.607 .607 .794 -24.461 28.72)"/><path id="Rectangle" d="m28.839 41.732h7.919v2h-7.919z" fill="#bdc3c7" transform="matrix(.959 -.282 .282 .959 -10.725 10.992)"/><path id="Rectangle" d="m25 33.7h2v8.3h-2z" fill="#bdc3c7"/><path id="Path" d="m30.44 32.78-4.153 2.92c-.1722779.1207631-.4017221.1207631-.574 0l-4.153-2.92c2.8686498-1.0399935 6.0113502-1.0399935 8.88 0z" fill="#464f5d"/><path id="Path" d="m22.45 57.505c-.8230031-.2301055-1.6204464-.5433868-2.38-.935-2.0503943-1.0495661-3.7836583-2.6271435-5.021-4.5700004l5.237.0000004c.2166554-.0002737.4088369.1390176.476.345z" fill="#464f5d"/><path id="Path" d="m15.75 37.01c-1.5244797 1.9422049-2.4582557 4.2818518-2.69 6.74-.02.2-.035.41-.045.62s-.015.42-.015.63v.22c0 .07.005.15.01.22l.275-.21 3.785-2.83c.1668367-.1270029.2367107-.3446103.175-.545z" fill="#464f5d"/><path id="Path" d="m30.829 43.632-1.661 5.025c-.0676308.204492-.2586147.3426934-.474.343h-5.388c-.2153853-.0003066-.4063692-.138508-.474-.343l-1.661-5.025c-.0692368-.2092609.0067243-.4391752.187-.566l4.354-3.066c.1727149-.1217002.4032851-.1217002.576 0l4.354 3.064c.1811598.12709.2572294.3581463.187.568z" fill="#464f5d"/><path id="Path" d="m39 45c.00258.1468271-.0024267.2936895-.015.44l-4.054-3.04c-.16841-.1267906-.2392082-.3455852-.177-.547l1.5-4.839c1.7837609 2.2794081 2.7507421 5.091612 2.746 7.986z" fill="#464f5d"/><path id="Path" d="m36.95 51.9999996c-1.2370669 1.9427237-2.9699722 3.5202888-5.02 4.5700004-.7595536.3916132-1.5569969.7048945-2.38.935l1.687-5.16c.0671631-.2059824.2593446-.3452737.476-.345z" fill="#464f5d"/><path id="Path" d="m22.45 57.505c-.8230031-.2301055-1.6204464-.5433868-2.38-.935-2.0518133-1.0471324-3.7853337-2.6252575-5.02-4.57h2.085c1.2698955 1.1907279 2.7662043 2.1140184 4.4 2.715z" fill="#393f4a"/><path id="Path" d="m36.95 52c-1.2346663 1.9447425-2.9681867 3.5228676-5.02 4.57-.7595536.3916132-1.5569969.7048945-2.38.935l.91-2.79c1.6355735-.6003832 3.1336325-1.5237044 4.405-2.715z" fill="#393f4a"/></g></g></svg>