<svg height="512" viewBox="0 0 60 60" width="512" xmlns="http://www.w3.org/2000/svg"><g id="Page-1" fill="none" fill-rule="evenodd"><g id="011---Betting"><path id="Path" d="m41 21c0 .23 0 .45-.02.68-.0573714 1.9055577-.3943 3.7923581-1 5.6-6.4337011 1.2417867-11.4632776 6.2753235-12.7 12.71-.27.09-.54.17-.82.25-8.3933252 2.3826148-17.36243313-.9524686-22.16-8.24-2.0321991-3.0678338-3.16812099-6.6418319-3.28-10.32-.02-.23-.02-.45-.02-.68 0-11.045695 8.954305-20 20-20s20 8.954305 20 20z" fill="#f5f5f5"/><path id="Path" d="m36.77 8.71c-3.783127-4.86845905-9.6044568-7.71452457-15.77-7.71-.506 0-1 .029-1.5.066 5.6263627.40587596 10.8147101 3.18511404 14.27 7.644 2.7458243 3.5077497 4.2353105 7.8353585 4.23 12.29 0 .23 0 .45-.02.68-.0573714 1.9055577-.3943 3.7923581-1 5.6-6.4337011 1.2417867-11.4632776 6.2753235-12.7 12.71-.27.09-.54.17-.82.25-1.2925085.3684886-2.6194911.6030562-3.96.7.5.036 1 .058 1.5.058 1.8465987.0034386 3.6845361-.2523916 5.46-.76.28-.08.55-.16.82-.25 1.2367224-6.4346765 6.2662989-11.4682133 12.7-12.71.6057-1.8076419.9426286-3.6944423 1-5.6.02-.23.02-.45.02-.68.0048627-4.4539563-1.484599-8.7807897-4.23-12.288z" fill="#cfd8dc"/><path id="Path" d="m59 43c0 8.836556-7.163444 16-16 16s-16-7.163444-16-16c.0015913-1.0097611.0953132-2.017271.28-3.01 1.2367224-6.4346765 6.2662989-11.4682133 12.7-12.71.9960991-.1846759 2.0069274-.2783951 3.02-.28 8.836556 0 16 7.163444 16 16z" fill="#ffdf00"/><path id="Path" d="m43 27c-.518 0-1.031.026-1.538.074 8.2277168.7511902 14.529019 7.6457449 14.5388763 15.9076764.0098572 8.2619316-6.2749754 15.1715027-14.5008763 15.9423236.494.046.994.076 1.5.076 8.836556 0 16-7.163444 16-16s-7.163444-16-16-16z" fill="#fec108"/><g fill="#607d8b"><path id="Path" d="m15.54 40.24c-4.6177092-1.3014282-8.60953321-4.2278188-11.24-8.24h8.47z"/><path id="Path" d="m27.83 2.2-6.83 4.8-6.83-4.8c4.4127763-1.60000354 9.2472237-1.60000354 13.66 0z"/><path id="Path" d="m7.69 16.67-6.67 5.01c-.02-.23-.02-.45-.02-.68-.0053105-4.4546415 1.48417567-8.7822503 4.23-12.29z"/><path id="Path" d="m28.61 18.35-2.91 8.65h-9.4l-2.91-8.65 7.61-5.35z"/><path id="Path" d="m41 21c0 .23 0 .45-.02.68l-6.67-5.01 2.46-7.96c2.7458243 3.5077497 4.2353105 7.8353585 4.23 12.29z"/></g><path id="Path" d="m41 21c0 .23 0 .45-.02.68l-3.04-2.29c-.2129737-2.6240622-.9437077-5.1799318-2.15-7.52l.98-3.16c2.7458243 3.5077497 4.2353105 7.8353585 4.23 12.29z" fill="#37474f"/><path id="Shape" d="m43 26c-.55 0-1.094.031-1.631.083.3570884-1.4126256.5606013-2.8596792.607-4.316.024-.259.024-.508.024-.767.0021232-5.5701969-2.2096886-10.9128628-6.1484129-14.85158708-3.9387243-3.93872429-9.2813902-6.15053611-14.8515871-6.14841292-11.59432289.00882369-20.99117631 9.40567711-21 21 0 .259 0 .508.021.712.30274504 9.1059066 6.44739355 16.9758082 15.208 19.478h.013l.022.007c3.5289371 1.0069201 7.2613308 1.0631527 10.819.163-.052.54-.083 1.088-.083 1.64 0 9.3888407 7.6111593 17 17 17s17-7.6111593 17-17-7.6111593-17-17-17zm-12.711 5.75-3.479-4.913 2.583-7.678 4.718-1.388 5.836 4.383c-.084269 1.4564737-.3407214 2.8978438-.764 4.294-3.4441147.7988803-6.553211 2.6523128-8.894 5.302zm-9.289-5.75h-3.981l-2.443-7.261 6.424-4.517 6.424 4.517-2.443 7.261zm-8.748 5h-7.393c-1.65632968-2.6694765-2.62076386-5.7098845-2.806-8.846l5.836-4.383 4.718 1.388 2.583 7.677zm-7.371-20.033 1.646 5.326-4.472 3.359c.2094381-3.0841253 1.18041562-6.0681804 2.826-8.685zm16.119-8.967c1.5406835.00209971 3.0753557.19217071 4.57.566l-4.57 3.211-4.571-3.212c1.4951052-.37306397 3.030055-.56279196 4.571-.565zm16.119 8.967c1.6458506 2.616695 2.6168505 5.6008189 2.826 8.685l-4.472-3.359zm-1.465-2.034-2.141 6.929-4.726 1.391-6.787-4.772v-4.961l5.962-4.19c3.0019563 1.17732611 5.6507612 3.10676626 7.692 5.603zm-21.616-5.603 5.962 4.19v4.961l-6.787 4.772-4.726-1.391-2.141-6.93c2.04167103-2.49553938 4.6903719-4.42455945 7.692-5.602zm-7.758 29.67h5.771l1.895 5.636c-2.9947345-1.1931282-5.63393983-3.1334571-7.666-5.636zm19.9 6.279c-3.2209243.9172815-6.6280499.960082-9.871.124l-2.434-7.241 2.941-4.162h8.367l3.817 5.385c-1.2119387 1.7594464-2.0795709 3.7325715-2.557 5.815-.087.026-.17.054-.259.079zm16.82 18.721c-8.2842712 0-15-6.7157288-15-15s6.7157288-15 15-15 15 6.7157288 15 15c-.0093685 8.2803876-6.7196124 14.9906315-15 15z" fill="#000" fill-rule="nonzero"/><path id="Shape" d="m48 39c0 .5522847.4477153 1 1 1s1-.4477153 1-1c0-2.56-2.566-4.608-6-4.946v-1.054c0-.5522847-.4477153-1-1-1s-1 .4477153-1 1v1.054c-3.434.338-6 2.386-6 4.946s2.566 4.608 6 4.946v5.99c-2.251-.287-4-1.515-4-2.936 0-.5522847-.4477153-1-1-1s-1 .4477153-1 1c0 2.56 2.566 4.608 6 4.946v2.054c0 .5522847.4477153 1 1 1s1-.4477153 1-1v-2.054c3.434-.338 6-2.386 6-4.946s-2.566-4.608-6-4.946v-5.99c2.251.287 4 1.515 4 2.936zm-10 0c0-1.421 1.749-2.649 4-2.936v5.872c-2.251-.287-4-1.515-4-2.936zm10 8c0 1.421-1.749 2.649-4 2.936v-5.872c2.251.287 4 1.515 4 2.936z" fill="#000" fill-rule="nonzero"/></g></g></svg>