<svg id="Layer_1" enable-background="new 0 0 256 256" height="512" viewBox="0 0 256 256" width="512" xmlns="http://www.w3.org/2000/svg"><path d="m13.225 145.594h136.479c5.095 0 9.225 4.13 9.225 9.225v16.859c0 5.095-4.13 9.225-9.225 9.225h-136.479c-5.095 0-9.225-4.13-9.225-9.225v-16.859c0-5.095 4.13-9.225 9.225-9.225z" fill="#fcc24c"/><path d="m149.704 145.594h-10.384c5.095 0 9.225 4.13 9.225 9.225v16.859c0 5.095-4.13 9.225-9.225 9.225h10.384c5.095 0 9.225-4.13 9.225-9.225v-16.859c-.001-5.095-4.131-9.225-9.225-9.225z" fill="#dea42e"/><path d="m13.225 180.902h10.384c-5.095 0-9.225-4.13-9.225-9.225v-16.858c0-5.095 4.13-9.225 9.225-9.225h-10.384c-5.095 0-9.225 4.13-9.225 9.225v16.858c0 5.095 4.13 9.225 9.225 9.225z" fill="#fce06a"/><path d="m149.703 182.902h-136.478c-6.189 0-11.225-5.035-11.225-11.224v-16.858c0-6.189 5.036-11.226 11.225-11.226h136.478c6.189 0 11.226 5.036 11.226 11.226v16.858c0 6.189-5.036 11.224-11.226 11.224zm-136.478-35.308c-3.984 0-7.225 3.241-7.225 7.226v16.858c0 3.983 3.241 7.225 7.225 7.225h136.478c3.984 0 7.226-3.241 7.226-7.225v-16.858c0-3.984-3.241-7.226-7.226-7.226z" fill="#690589"/><path d="m13.225 110.286h136.479c5.095 0 9.225 4.13 9.225 9.225v16.858c0 5.095-4.13 9.225-9.225 9.225h-136.479c-5.095 0-9.225-4.13-9.225-9.225v-16.858c0-5.095 4.13-9.225 9.225-9.225z" fill="#fcc24c"/><path d="m149.704 110.286h-10.384c5.095 0 9.225 4.13 9.225 9.225v16.858c0 5.095-4.13 9.225-9.225 9.225h10.384c5.095 0 9.225-4.13 9.225-9.225v-16.858c-.001-5.095-4.131-9.225-9.225-9.225z" fill="#dea42e"/><path d="m13.225 145.594h10.384c-5.095 0-9.225-4.13-9.225-9.225v-16.858c0-5.095 4.13-9.225 9.225-9.225h-10.384c-5.095 0-9.225 4.13-9.225 9.225v16.858c0 5.095 4.13 9.225 9.225 9.225z" fill="#fce06a"/><path d="m149.703 147.594h-136.478c-6.189 0-11.225-5.035-11.225-11.225v-16.858c0-6.189 5.036-11.225 11.225-11.225h136.478c6.189 0 11.226 5.035 11.226 11.225v16.858c0 6.19-5.036 11.225-11.226 11.225zm-136.478-35.308c-3.984 0-7.225 3.241-7.225 7.225v16.858c0 3.983 3.241 7.225 7.225 7.225h136.478c3.984 0 7.226-3.241 7.226-7.225v-16.858c0-3.983-3.241-7.225-7.226-7.225z" fill="#690589"/><path d="m13.225 74.977h136.479c5.095 0 9.225 4.13 9.225 9.225v16.858c0 5.095-4.13 9.225-9.225 9.225h-136.479c-5.095 0-9.225-4.13-9.225-9.225v-16.858c0-5.095 4.13-9.225 9.225-9.225z" fill="#fcc24c"/><path d="m149.704 74.977h-10.384c5.095 0 9.225 4.13 9.225 9.225v16.858c0 5.095-4.13 9.225-9.225 9.225h10.384c5.095 0 9.225-4.13 9.225-9.225v-16.858c-.001-5.095-4.131-9.225-9.225-9.225z" fill="#dea42e"/><path d="m13.225 110.286h10.384c-5.095 0-9.225-4.13-9.225-9.225v-16.859c0-5.095 4.13-9.225 9.225-9.225h-10.384c-5.095 0-9.225 4.13-9.225 9.225v16.858c0 5.096 4.13 9.226 9.225 9.226z" fill="#fce06a"/><path d="m149.703 112.286h-136.478c-6.189 0-11.225-5.036-11.225-11.225v-16.859c0-6.189 5.036-11.225 11.225-11.225h136.478c6.189 0 11.226 5.035 11.226 11.225v16.858c0 6.19-5.036 11.226-11.226 11.226zm-136.478-35.308c-3.984 0-7.225 3.241-7.225 7.224v16.858c0 3.984 3.241 7.226 7.225 7.226h136.478c3.984 0 7.226-3.241 7.226-7.226v-16.858c0-3.983-3.241-7.225-7.226-7.225h-136.478z" fill="#690589"/><path d="m13.225 39.669h136.479c5.095 0 9.225 4.13 9.225 9.225v16.858c0 5.095-4.13 9.225-9.225 9.225h-136.479c-5.095 0-9.225-4.13-9.225-9.225v-16.858c0-5.095 4.13-9.225 9.225-9.225z" fill="#fcc24c"/><path d="m149.704 39.669h-10.384c5.095 0 9.225 4.13 9.225 9.225v16.858c0 5.095-4.13 9.225-9.225 9.225h10.384c5.095 0 9.225-4.13 9.225-9.225v-16.858c-.001-5.095-4.131-9.225-9.225-9.225z" fill="#dea42e"/><path d="m13.225 74.977h10.384c-5.095 0-9.225-4.13-9.225-9.225v-16.858c0-5.095 4.13-9.225 9.225-9.225h-10.384c-5.095 0-9.225 4.13-9.225 9.225v16.858c0 5.095 4.13 9.225 9.225 9.225z" fill="#fce06a"/><path d="m149.703 76.978h-136.478c-6.189 0-11.225-5.037-11.225-11.226v-16.858c0-6.189 5.036-11.225 11.225-11.225h136.478c6.189 0 11.226 5.035 11.226 11.225v16.858c0 6.189-5.036 11.226-11.226 11.226zm-136.478-35.309c-3.984 0-7.225 3.241-7.225 7.225v16.858c0 3.984 3.241 7.226 7.225 7.226h136.478c3.984 0 7.226-3.241 7.226-7.226v-16.858c0-3.983-3.241-7.225-7.226-7.225z" fill="#690589"/><ellipse cx="174.536" cy="140.835" fill="#fcc24c" rx="77.464" ry="77.464" transform="matrix(.163 -.987 .987 .163 7.086 290.026)"/><path d="m170.322 217.745c2.118.249 4.26.418 6.424.499 41.758-1.174 75.254-35.368 75.254-77.409s-33.497-76.235-75.254-77.408c-2.164.08-4.306.249-6.424.498 38.475 4.523 68.33 37.22 68.33 76.91s-29.855 72.387-68.33 76.91z" fill="#dea42e"/><path d="m178.749 63.925c-2.118-.249-4.26-.418-6.424-.499-41.757 1.173-75.254 35.367-75.254 77.408s33.497 76.235 75.254 77.408c2.164-.081 4.306-.249 6.424-.498-38.475-4.523-68.33-37.22-68.33-76.91 0-39.689 29.855-72.386 68.33-76.909z" fill="#fce06a"/><g fill="#690589"><path d="m174.535 220.3c-43.816 0-79.464-35.648-79.464-79.465 0-43.816 35.647-79.464 79.464-79.464s79.465 35.647 79.465 79.464-35.648 79.465-79.465 79.465zm0-154.929c-41.611 0-75.464 33.853-75.464 75.464s33.853 75.465 75.464 75.465 75.465-33.854 75.465-75.465-33.854-75.464-75.465-75.464z"/><path d="m113.541 114.793c-.244 0-.492-.045-.732-.14-1.028-.405-1.533-1.566-1.128-2.594 1.65-4.194 3.616-8.316 5.842-12.252.543-.962 1.763-1.302 2.725-.757.961.544 1.3 1.765.756 2.726-2.134 3.774-4.019 7.727-5.602 11.748-.309.788-1.063 1.269-1.861 1.269z"/><path d="m175.417 102.685c2.115 0 3.788 1.674 3.788 3.788v1.939c5.199.617 9.604 2.291 13.657 4.846 1.41.793 2.643 2.115 2.643 4.229 0 2.731-2.203 4.846-4.934 4.846-.881 0-1.762-.264-2.643-.793-3.084-1.85-6.079-3.172-9.075-3.877v16.916c13.391 3.348 19.119 8.723 19.119 18.15 0 9.691-7.577 16.123-18.767 17.181v5.286c0 2.115-1.674 3.789-3.788 3.789-2.115 0-3.877-1.675-3.877-3.789v-5.462c-6.608-.705-12.687-3.084-18.061-6.873-1.498-.969-2.379-2.378-2.379-4.229 0-2.731 2.115-4.846 4.846-4.846 1.057 0 2.115.353 2.908.969 4.141 2.995 8.194 5.023 13.04 5.903v-17.357c-12.864-3.348-18.855-8.194-18.855-18.15 0-9.428 7.489-15.947 18.502-16.828v-1.85c-.001-2.114 1.761-3.788 3.876-3.788zm-3.524 30.044v-15.595c-5.639.529-8.458 3.524-8.458 7.401 0 3.701 1.673 5.992 8.458 8.194zm6.96 12.247v16.036c5.639-.617 8.723-3.437 8.723-7.665 0-3.878-1.939-6.257-8.723-8.371z"/></g><path d="m216.353 102.241 11.882 16.053 11.882-16.053 11.883-16.053h-14.607v-48.487h-18.316v48.487h-14.607z" fill="#ff4397"/><path d="m228.235 120.294c-.634 0-1.23-.301-1.607-.811l-11.883-16.053-11.883-16.054c-.449-.606-.518-1.415-.179-2.09.34-.674 1.031-1.1 1.786-1.1h12.607v-46.486c0-1.104.896-2 2-2h18.316c1.104 0 2 .896 2 2v46.487h12.608c.755 0 1.446.426 1.786 1.1.34.675.27 1.483-.179 2.09l-23.765 32.106c-.376.51-.973.811-1.607.811zm-10.275-19.242 10.275 13.881 19.796-26.745h-10.638c-1.105 0-2-.896-2-2v-46.488h-14.316v46.487c0 1.104-.896 2-2 2h-10.639z" fill="#690589"/></svg>