<svg enable-background="new 0 0 110 110" height="512" viewBox="0 0 110 110" width="512" xmlns="http://www.w3.org/2000/svg"><path d="m31.5645142 95.0563431c0 1.1982422.9714355 2.1699219 2.1696777 2.1699219h6.7504883c1.0372925 0 1.9295044-.734375 2.1290894-1.7524414l4.2179565-21.5063477h-15.2672119z" fill="#feda6f"/><path d="m61.7867432 73.9674759 4.2179565 21.5063477c.199646 1.0180664 1.0918579 1.7524414 2.1290894 1.7524414h6.7504883c1.1983032 0 2.1696777-.9716797 2.1696777-2.1699219v-21.0888672z" fill="#feda6f"/><path d="m42.6064453 95.5216751c-.2199707.9897461-1.0999756 1.699707-2.1199951 1.699707h-6.75c-1.2000122 0-2.1699829-.9697266-2.1699829-2.1699219v-21.0800781h1.6499634v19.4301758c0 1.2001953.9700317 2.1699219 2.1700439 2.1699219h6.75c.1599732 0 .3199463-.0200195.4699707-.0498047z" fill="#f9c74b"/><path d="m77.0064697 95.5216751c-.210022.9697266-1.0800171 1.699707-2.1199951 1.699707h-6.75c-1.0400391 0-1.9300537-.7299805-2.1300049-1.75l-4.2200317-21.5h1.9800415l3.8899536 19.8500977c.2000122 1.0200195 1.0900269 1.75 2.1300049 1.75h6.75c.1600342 0 .3200073-.0200195.4700317-.0498047z" fill="#f9c74b"/><path d="m101.5430908 49.8297844c-1.9707031 0-3.9335938-.6269531-5.5966797-1.7089844-1.2988281.4550781-2.8125.5263672-4.3916016.1855469-1.8378906-.3925781-3.4755859-1.2392578-5.0585938-2.0576172l.9179688-1.7773438c1.4667969.7587891 2.9824219 1.5429688 4.5585938 1.8798828.7001953.1494141 1.3847656.1962891 2.0283203.1416016-.8291016-.8847656-1.4970703-1.9140625-1.9365234-3.0478516-.8837891-2.2822266-.7636719-4.7041016.3232422-6.4785156 1.3408203-2.1875 4.1591797-3.1386719 6.2871094-2.1191406 1.6513672.7919922 2.734375 2.6474609 2.7578125 4.7255859.0175781 1.5107422-.4794922 3.1132812-1.5195312 4.8984375-.4228516.7236328-1.0595703 1.7128906-1.9785156 2.5048828 1.4443359.7119141 3.0830078 1.0146484 4.6689453.7744141l.3007812 1.9765625c-.4521485.069336-.9062501.1025391-1.3613282.1025391zm-4.7050781-13.3886719c-1.0263672 0-2.1513672.5996094-2.7451172 1.5693359-.7626953 1.2460938-.8232422 3.0078125-.1630859 4.7119141.4648438 1.2011719 1.2509766 2.2548828 2.2304688 3.0888672.0234375-.0146484.0458984-.0292969.0683594-.0439453.6953125-.4648438 1.2988281-1.1748047 1.9560547-2.3037109.8535156-1.4628906 1.2617188-2.7285156 1.2480469-3.8671875-.0126953-1.0849609-.5185547-2.4160156-1.6230469-2.9462891-.2968751-.1425781-.6289064-.2089844-.9716798-.2089844z" fill="#293b44"/><path d="m9.0604858 50.6496086c-1.0852051 0-1.9649048.8793945-1.9649048 1.9648438v13.9414024c0 1.0849609.8796997 1.9648438 1.9649048 1.9648438h13.3831787v-17.87109z" fill="#feda6f"/><path d="m22.4356079 61.1115227v7.4101524h-13.3800049c-1.0800171 0-1.960022-.8798828-1.960022-1.9702148v-7.4096642c0 1.0898438.8800049 1.9697266 1.960022 1.9697266z" fill="#f9c74b"/><ellipse cx="53.935" cy="58.325" fill="#feda6f" rx="39.275" ry="30.549"/><path d="m93.2064209 58.3214836c0 16.8701134-17.5799561 30.5502892-39.2699585 30.5502892s-39.2800293-13.6801758-39.2800293-30.5502892c0-1.4399414.1300049-2.8598633.3800049-4.2397461 2.6600342 14.8598595 19.0700073 26.2998009 38.9000244 26.2998009s36.2299805-11.4399414 38.8900147-26.2998009c.25 1.3798828.3799438 2.7998047.3799438 4.2397461z" fill="#f9c74b"/><path d="m37.8787003 34.6058922-11.1332188-8.4520664c-.7283077-.5529137-1.774828-.0334721-1.774828.8809376v16.2051811z" fill="#feda6f"/><path d="m27.7859039 44.074585c-1.0938625 0-1.9806271.8868675-1.9806271 1.9806252 0 1.0937614.8867645 1.980629 1.9806271 1.980629 1.0938606 0 1.9805756-.8868675 1.9805756-1.980629 0-1.0937577-.8867149-1.9806252-1.9805756-1.9806252z" fill="#293b44"/><path d="m69.5782471 40.6825523c-9.510498-3.0893555-19.755127-3.0893555-29.265625 0-.4044189-1.2446289-.809082-2.4897461-1.213501-3.7348633 10.2991943-3.3461914 21.3934326-3.3461914 31.692627 0-.404419 1.2451172-.8090821 2.4902344-1.213501 3.7348633z" fill="#344d5b"/><path d="m69.5782471 40.6825523c-9.510498-3.0893555-19.755127-3.0893555-29.265625 0-.4044189-1.2446289-.809082-2.4897461-1.213501-3.7348633 10.2991943-3.3461914 21.3934326-3.3461914 31.692627 0-.404419 1.2451172-.8090821 2.4902344-1.213501 3.7348633z" fill="#344d5b"/><path d="m69.8584061 27.6838875c0 3.7299805-1.3699951 7.1401367-3.6500244 9.75-1.039978-.25-2.0999756-.4501953-3.1599731-.6098633-2.6799927-.4404297-5.3900146-.6503906-8.0999756-.6503906-2.710022 0-5.4200439.2099609-8.1100464.6503906-1.0599976.159668-2.1099854.3598633-3.1499634.6098633-2.2800293-2.6098633-3.6500244-6.0200195-3.6500244-9.75 0-8.2299805 6.6699829-14.9101553 14.9100342-14.9101553 8.2299804 0 14.9099731 6.6801748 14.9099731 14.9101553z" fill="#f7be56"/><path d="m67.1583939 27.6838875c0 3.6401367-1.5899658 6.8999023-4.1099854 9.1401367-2.6799927-.4404297-5.3900146-.6503906-8.0999756-.6503906-2.710022 0-5.4200439.2099609-8.1100464.6503906-2.5100098-2.2402344-4.0999756-5.5-4.0999756-9.1401367 0-6.7402344 5.460022-12.20996 12.210022-12.20996 6.7399903 0 12.209961 5.4697256 12.209961 12.20996z" fill="#fcd462"/><path d="m59.2183914 28.8137703c-.1699829-.4599609-.4299927-.8500977-.7600098-1.1801758-.3299561-.3398438-.7599487-.6196289-1.2799683-.8496094-.2800293-.1201172-.8400269-.2802734-1.6900024-.4902344v-4.8701172c.5499878.1201172.9799805.3500977 1.2999878.7001953.3099976.3598633.5200195.8598633.6199951 1.5200195l1.7399902-.2602539c-.1499634-1.0698242-.5899658-1.909668-1.3299561-2.5195312-.5700073-.4804688-1.3500366-.7705078-2.3300171-.8603516v-.7998046h-.9899902v.7998047c-1.1199951.1103516-1.960022.4199219-2.5300293.9199219-.8499756.7402344-1.2799683 1.7099609-1.2799683 2.9101562 0 .6801758.1499634 1.2802734.4400024 1.8100586.289978.5297852.6999512.949707 1.2399902 1.25.7299805.3999023 1.4299927.6699219 2.1300049.7998047v5.3701172c-.6600342-.0698242-1.2300415-.3999023-1.710022-1-.3300171-.4301758-.5599976-1.0898438-.6900024-2l-1.7000122.3198242c.0700073.8701172.2900391 1.6103516.6700439 2.2202148.3899536.6098633.8399658 1.0400391 1.3699951 1.3198242.5299683.2700195 1.2099609.4599609 2.0599976.5600586v1.6899414h.9899902v-1.7099609c1.1799927-.0498047 2.1400146-.4697266 2.8900146-1.25.7399902-.7797852 1.1099854-1.7597656 1.1099854-2.9199219.0000002-.5297851-.0900266-1.0297851-.2700193-1.4799804zm-4.7199707-2.7397461c-.7700195-.2304688-1.3200073-.5400391-1.6400146-.9301758-.3200073-.3798828-.4799805-.8598633-.4799805-1.4399414s.1900024-1.0800781.5700073-1.5102539c.3699951-.4199219.8899536-.6796875 1.5499878-.7797852zm2.6199951 6.1396484c-.4299927.4799805-.9700317.7700195-1.6300049.8500977v-5.1298828c.9099731.2900391 1.5100098.6201172 1.8099976.9897461.3099976.3701172.460022.8701172.460022 1.4799805 0 .7202148-.2200318 1.3203124-.6400147 1.8100585z" fill="#f7be56"/></svg>