<svg height="512" viewBox="0 0 52 58" width="512" xmlns="http://www.w3.org/2000/svg"><g id="Page-1" fill="none" fill-rule="evenodd"><g id="021---Red-Yellow-Card"><path id="Path" d="m43.96 48c-.1450695.6733825-.6420091 1.2161934-1.3 1.42l-27.17 8.49c-.4800258.1530236-1.0012704.1081605-1.448089-.1246357s-.7822631-.6342755-.931911-1.1153643l-13.02-41.67c-.15416881-.4786794-.10969596-.9992145.12343941-1.4448039.23313537-.4455893.6354107-.7789197 1.11656059-.9251961l17.67-5.53z" fill="#e64c3c"/><path id="Path" d="m5.856 21.045c-.43674007.0000266-.82297798-.2833765-.954-.7l-1.32-4.227c-.16498939-.5268668.12821293-1.0877562.655-1.253l4.3-1.345c.34101001-.1071797.71329594-.0242911.97662128.2174424.26332533.2417334.37768469.6055868.30000001.9545-.07768469.3489132-.33561127.6298779-.67662129.7370576l-3.348 1.045 1.023 3.272c.09564079.304116.04054706.6356092-.14832232.8924399s-.48887799.4082173-.80767768.4075601z" fill="#fb7b76"/><rect id="Rectangle" fill="#f0c419" height="48" rx="2" width="33" x="19"/><path id="Path" d="m23 9c-.5522847 0-1-.44771525-1-1v-4c0-.55228475.4477153-1 1-1h4c.5522847 0 1 .44771525 1 1s-.4477153 1-1 1h-3v3c0 .55228475-.4477153 1-1 1z" fill="#fff"/></g></g></svg>